<?xml version="1.0" encoding="UTF-8" standalone="no"?>
<!-- Created with Inkscape (http://www.inkscape.org/) -->

<svg
   width="1800mm"
   height="1900mm"
   viewBox="0 0 210 297"
   version="1.1"
   id="svg1"
   inkscape:version="1.3.2 (091e20e, 2023-11-25, custom)"
   sodipodi:docname="ecobadi.svg"
   xmlns:inkscape="http://www.inkscape.org/namespaces/inkscape"
   xmlns:sodipodi="http://sodipodi.sourceforge.net/DTD/sodipodi-0.dtd"
   xmlns="http://www.w3.org/2000/svg"
   xmlns:svg="http://www.w3.org/2000/svg">
  <sodipodi:namedview
     id="namedview1"
     pagecolor="#505050"
     bordercolor="#eeeeee"
     borderopacity="1"
     inkscape:showpageshadow="0"
     inkscape:pageopacity="0"
     inkscape:pagecheckerboard="0"
     inkscape:deskcolor="#505050"
     inkscape:document-units="mm"
     inkscape:zoom="11.313709"
     inkscape:cx="50.469746"
     inkscape:cy="10.871767"
     inkscape:window-width="1920"
     inkscape:window-height="1080"
     inkscape:window-x="0"
     inkscape:window-y="0"
     inkscape:window-maximized="1"
     inkscape:current-layer="g37" />
  <defs
     id="defs1">
    <inkscape:path-effect
       effect="mirror_symmetry"
       start_point="14.86022,1.7172023"
       end_point="14.86022,5.3155108"
       center_point="14.86022,3.5163566"
       id="path-effect43"
       is_visible="true"
       lpeversion="1.2"
       lpesatellites=""
       mode="free"
       discard_orig_path="false"
       fuse_paths="false"
       oposite_fuse="false"
       split_items="false"
       split_open="false"
       link_styles="false" />
    <inkscape:path-effect
       effect="mirror_symmetry"
       start_point="14.86022,1.7172023"
       end_point="14.86022,5.3155108"
       center_point="14.86022,3.5163566"
       id="path-effect32"
       is_visible="true"
       lpeversion="1.2"
       lpesatellites=""
       mode="free"
       discard_orig_path="false"
       fuse_paths="false"
       oposite_fuse="false"
       split_items="false"
       split_open="false"
       link_styles="false" />
    <inkscape:path-effect
       effect="mirror_symmetry"
       start_point="10.967735,5.3110788"
       end_point="10.967735,6.0271884"
       center_point="10.967735,5.6691336"
       id="path-effect22"
       is_visible="true"
       lpeversion="1.2"
       lpesatellites=""
       mode="free"
       discard_orig_path="false"
       fuse_paths="false"
       oposite_fuse="false"
       split_items="false"
       split_open="false"
       link_styles="false" />
    <inkscape:path-effect
       effect="mirror_symmetry"
       start_point="0.47,5.6730823"
       end_point="9.67,5.17"
       center_point="5.07,5.4215411"
       id="path-effect21"
       is_visible="true"
       lpeversion="1.2"
       lpesatellites=""
       mode="free"
       discard_orig_path="false"
       fuse_paths="false"
       oposite_fuse="false"
       split_items="false"
       split_open="false"
       link_styles="false" />
    <inkscape:path-effect
       effect="fillet_chamfer"
       id="path-effect20"
       is_visible="true"
       lpeversion="1"
       nodesatellites_param="F,0,0,1,0,0,0,1 @ F,0,0,1,0,0,0,1"
       radius="0"
       unit="px"
       method="auto"
       mode="F"
       chamfer_steps="1"
       flexible="false"
       use_knot_distance="true"
       apply_no_radius="true"
       apply_with_radius="true"
       only_selected="false"
       hide_knots="false" />
    <inkscape:path-effect
       effect="offset"
       id="path-effect19"
       is_visible="true"
       lpeversion="1.2"
       linejoin_type="miter"
       unit="mm"
       offset="0"
       miter_limit="4"
       attempt_force_join="false"
       update_on_knot_move="true" />
  </defs>
  <g
     inkscape:label="Layer 1"
     inkscape:groupmode="layer"
     id="layer1">
    <g
       id="g36">
      <g
         id="g32"
         inkscape:path-effect="#path-effect32">
        <path
           style="fill:none;stroke:#000000;stroke-width:0.13;stroke-linecap:round;stroke-linejoin:round;stroke-dasharray:none;stroke-opacity:1"
           id="path29"
           sodipodi:type="arc"
           sodipodi:cx="-2.7968006"
           sodipodi:cy="15.480001"
           sodipodi:rx="0.89957714"
           sodipodi:ry="1.2195113"
           sodipodi:start="0"
           sodipodi:end="3.1415927"
           sodipodi:open="true"
           sodipodi:arc-type="arc"
           d="m -1.8972235,15.480001 c 0,0.43569 -0.1714584,0.838283 -0.4497886,1.056128 -0.2783301,0.217845 -0.621247,0.217845 -0.8995771,0 -0.2783301,-0.217845 -0.4497886,-0.620438 -0.4497886,-1.056128 m 1.7991543,-1.239562 c 0,-0.43569 -0.1714584,-0.838283 -0.4497886,-1.056128 -0.2783301,-0.217845 -0.621247,-0.217845 -0.8995771,0 -0.2783301,0.217845 -0.4497886,0.620438 -0.4497886,1.056128"
           transform="rotate(-90)" />
        <path
           style="fill:none;stroke:#000000;stroke-width:0.13;stroke-linecap:round;stroke-linejoin:round;stroke-dasharray:none;stroke-opacity:1"
           id="path30"
           sodipodi:type="arc"
           sodipodi:cx="2.7968006"
           sodipodi:cy="-15.480001"
           sodipodi:rx="0.89957714"
           sodipodi:ry="0.60883772"
           sodipodi:start="1.6450766"
           sodipodi:end="3.1415927"
           sodipodi:arc-type="arc"
           d="m 2.7300412,-14.872843 c -0.4696252,-0.02365 -0.8328177,-0.288435 -0.8328177,-0.607158 m 0.8328177,0.632404 c -0.4696252,0.02365 -0.8328177,0.288435 -0.8328177,0.607158"
           transform="rotate(90)"
           sodipodi:open="true" />
        <path
           style="fill:none;stroke:#000000;stroke-width:0.13;stroke-linecap:round;stroke-linejoin:round;stroke-dasharray:none;stroke-opacity:1"
           id="path31"
           sodipodi:type="arc"
           sodipodi:cx="-4.5959549"
           sodipodi:cy="15.480001"
           sodipodi:rx="0.89957714"
           sodipodi:ry="1.2195113"
           sodipodi:start="0"
           sodipodi:end="3.1415927"
           sodipodi:open="true"
           sodipodi:arc-type="arc"
           d="m -3.6963778,15.480001 c 0,0.43569 -0.1714584,0.838283 -0.4497885,1.056128 -0.2783302,0.217845 -0.6212471,0.217845 -0.8995772,0 -0.2783301,-0.217845 -0.4497885,-0.620438 -0.4497885,-1.056128 m 1.7991542,-1.239562 c 0,-0.43569 -0.1714584,-0.838283 -0.4497885,-1.056128 -0.2783302,-0.217845 -0.6212471,-0.217845 -0.8995772,0 -0.2783301,0.217845 -0.4497885,0.620438 -0.4497885,1.056128"
           transform="rotate(-90)" />
        <path
           style="fill:none;stroke:#000000;stroke-width:0.13;stroke-linecap:round;stroke-linejoin:round;stroke-dasharray:none;stroke-opacity:1"
           id="path32"
           sodipodi:type="arc"
           sodipodi:cx="4.5959549"
           sodipodi:cy="-15.480001"
           sodipodi:rx="0.89957714"
           sodipodi:ry="0.60883772"
           sodipodi:start="0"
           sodipodi:end="1.5707963"
           sodipodi:open="true"
           sodipodi:arc-type="arc"
           d="m 5.495532,-15.480001 c 0,0.336251 -0.4027544,0.608837 -0.8995771,0.608837 m 0.8995771,0.630725 c 0,-0.336251 -0.4027544,-0.608837 -0.8995771,-0.608837"
           transform="rotate(90)" />
      </g>
      <path
         style="fill:none;stroke:#000000;stroke-width:0.13;stroke-linecap:round;stroke-linejoin:round;stroke-dasharray:none;stroke-opacity:1"
         d="M 14.86022,1.8322234 V 6.7055337"
         id="path33"
         sodipodi:nodetypes="cc" />
      <path
         style="fill:none;stroke:#000000;stroke-width:0.13;stroke-linecap:round;stroke-linejoin:round;stroke-dasharray:none;stroke-opacity:1"
         d="M 14.175438,3.6963778 H 14.86022"
         id="path34" />
    </g>
    <g
       id="g37">
      <path
         style="fill:#000000;stroke:#000000;stroke-width:0.131364;stroke-linecap:round;stroke-linejoin:round;stroke-dasharray:none;stroke-opacity:1"
         d="M 6.0337011,1.8385527 V 6.6691966"
         id="path1"
         sodipodi:nodetypes="cc" />
      <path
         style="fill:#000000;stroke:#000000;stroke-width:0.13;stroke-linecap:round;stroke-linejoin:round;stroke-dasharray:none;stroke-opacity:1"
         d="M 6.0337011,1.8322234 H 7.5974093"
         id="path2" />
      <path
         style="fill:#000000;stroke:#000000;stroke-width:0.13;stroke-linecap:round;stroke-linejoin:round;stroke-dasharray:none;stroke-opacity:1"
         d="M 6.0337011,4.9912293 H 7.5974093"
         id="path3" />
      <path
         style="fill:#000000;stroke:#000000;stroke-width:0.13;stroke-linecap:round;stroke-linejoin:round;stroke-dasharray:none;stroke-opacity:1"
         d="M 6.0589441,3.4513566 H 7.0825203"
         id="path4" />
      <path
         style="color:#000000;fill:#000000;stroke-width:0.93415;stroke-linecap:round;stroke-linejoin:round;-inkscape-stroke:none"
         d="m 10.736211,3.3862289 c -0.447551,0 -0.8082585,0.3790871 -0.8082585,0.8410998 0,0.4620127 0.3607075,0.8410998 0.8082585,0.8410998 1.056448,0 1.056448,-1.6821996 0,-1.6821996 z m 0,0.153259 c 0.301354,-0.023131 0.693416,1.3756816 0,1.3756816 -0.360516,0 -0.655,-0.3055539 -0.655,-0.6878408 0,-0.382287 0.295541,-0.6602495 0.655,-0.6878408 z"
         id="ellipse5"
         sodipodi:nodetypes="ssssssss" />
      <path
         d="m 8.7763876,3.3863566 c -0.4475759,0 -0.808627,0.378934 -0.808627,0.8409721 0,0.4620382 0.3610511,0.8409721 0.808627,0.8409721 0.1063491,0 0.2243506,-0.032678 0.3308228,-0.05015 C 9.3656322,4.9757458 9.3476595,4.8824476 9.3513576,4.827402 9.3572776,4.739289 9.1041127,4.928307 8.7763876,4.915265 8.4161373,4.900928 8.121279,4.6096362 8.121279,4.2273284 c 0,-0.3823081 0.2945732,-0.6879365 0.6551086,-0.6879365 0.1232063,0 0.2231732,0.016157 0.3030854,0.03623 0.1838644,0.046184 0.2615628,0.1130967 0.2718846,0.051633 C 9.3605128,3.5727523 9.3695568,3.5756072 9.1839628,3.470925 9.0338183,3.3862373 8.9101602,3.3863566 8.7763876,3.3863566 Z"
         style="stroke-width:0.934202;stroke-linecap:round;stroke-linejoin:round"
         id="path7"
         sodipodi:nodetypes="ssssssssssss" />
      <path
         style="fill:none;stroke:#000000;stroke-width:0.13;stroke-linecap:round;stroke-linejoin:round;stroke-dasharray:none;stroke-opacity:1"
         d="m 6.8155552,2.2586892 v 0.7107764 l 4.5857838,0"
         id="path8"
         sodipodi:nodetypes="ccc" />
      <path
         style="fill:none;stroke:#000000;stroke-width:0.13;stroke-linecap:round;stroke-linejoin:round;stroke-dasharray:none;stroke-opacity:1"
         d="m 7.9677606,1.8322234 v 0.6475962 h 0.5295493 l 2.8973291,0"
         id="path9"
         sodipodi:nodetypes="cccc" />
      <path
         d="m 6.0154358,3.3713618 c -0.8951518,0 -1.617254,0.378934 -1.617254,0.8409721 0,0.4620382 0.7221022,0.8409721 1.617254,0.8409721 0.1119298,0 0.1119298,-0.1530358 0,-0.1530358 -0.721071,0 -1.617254,-0.3056285 -1.617254,-0.6879363 0,-0.3823081 0.8961832,-0.6879368 1.617254,-0.6879368 0.1119298,0 0.1119298,-0.1530353 0,-0.1530353 z"
         style="stroke-width:1.3;stroke-linecap:round;stroke-linejoin:round;stroke-dasharray:none"
         id="path10"
         sodipodi:nodetypes="sssssss" />
      <path
         style="fill:none;stroke:#000000;stroke-width:0.112279;stroke-linecap:round;stroke-linejoin:round;stroke-dasharray:none;stroke-opacity:1"
         d="m 10.587524,6.6306366 0.450041,-0.646355"
         id="path18"
         sodipodi:nodetypes="cc" />
      <path
         style="fill:none;stroke:#000000;stroke-width:0.13;stroke-linecap:round;stroke-linejoin:round;stroke-dasharray:none;stroke-opacity:1"
         d="M 11.699154,5.1805575 10.967735,6.0311371 M 10.236316,5.1805575 10.967735,6.0311371"
         id="path19"
         inkscape:path-effect="#path-effect22"
         inkscape:original-d="M 11.699154,5.1805575 10.967735,6.0311371"
         transform="matrix(0.77917428,0,0,0.95735576,2.491788,0.2103377)"
         sodipodi:nodetypes="cc" />
      <path
         d="m 7.3937241,5.8546166 c 0,0 0,0.7927296 -0.5363701,0.7927296 -0.5363701,0 -0.5107607,-0.7927296 -0.5107607,-0.7927296 -9.3e-6,0.4426379 0.1505058,0.792741 0.5107607,0.7927296 0.3602549,1.14e-5 0.5363794,-0.3500917 0.5363701,-0.7927296 z"
         style="fill:none;stroke:#000000;stroke-width:0.112279;stroke-linecap:round;stroke-linejoin:round"
         id="path24"
         sodipodi:nodetypes="czccc" />
      <path
         style="fill:none;stroke:#000000;stroke-width:0.112279;stroke-linecap:round;stroke-linejoin:round;stroke-dasharray:none;stroke-opacity:1"
         d="M 6.3465933,5.8546166 6.350941,5.1603711"
         id="path25"
         sodipodi:nodetypes="cc" />
      <path
         style="fill:none;stroke:#000000;stroke-width:0.112279;stroke-linecap:round;stroke-linejoin:round;stroke-dasharray:none;stroke-opacity:1"
         d="m 7.3893765,5.8546166 0.00435,-0.6942455"
         id="path26"
         sodipodi:nodetypes="cc" />
      <path
         d="m 7.7608804,5.1638858 c 0,0 1.0082848,0 1.0082848,0.7421511 0,0.7421511 -1.0082848,0.7067166 -1.0082848,0.7067166 -0.00314,-0.086742 0,-1.3580592 0,-1.4488677 z"
         style="fill:none;stroke:#000000;stroke-width:0.112279;stroke-linecap:round;stroke-linejoin:round;stroke-dasharray:none"
         id="path27"
         sodipodi:nodetypes="czcc" />
      <path
         d="m 9.1363191,5.1638858 c 0,0 1.0082849,0 1.0082849,0.7421511 0,0.7421511 -1.0082849,0.7067166 -1.0082849,0.7067166 -0.00314,-0.086742 0,-1.3580593 0,-1.4488677 z"
         style="fill:none;stroke:#000000;stroke-width:0.112279;stroke-linecap:round;stroke-linejoin:round;stroke-dasharray:none"
         id="path35"
         sodipodi:nodetypes="czcc" />
      <path
         d="m 6.0154358,4.8833034 c -0.9898684,0 -1.617254,0.4809824 -1.617254,0.9342124 0,0.5132653 0.7221022,0.9342124 1.617254,0.9342124 0.1119298,0 0.1119298,-0.1700032 0,-0.1700032 -0.721071,0 -1.617254,-0.3395142 -1.617254,-0.7642092 0,-0.4246954 0.8961832,-0.7642098 1.617254,-0.7642098 0.1119298,0 0.1119298,-0.1700026 0,-0.1700026 z"
         style="stroke-width:1.37017;stroke-linecap:round;stroke-linejoin:round;stroke-dasharray:none"
         id="path36"
         sodipodi:nodetypes="sssssss" />
      <path
         style="fill:none;stroke:#000000;stroke-width:0.13;stroke-linecap:round;stroke-linejoin:round;stroke-dasharray:none;stroke-opacity:1"
         d="m 11.11979,4.3182159 c 0,0 -0.140143,0.096006 -0.39154,0.1347719 -0.399242,0.061564 -0.721749,-0.1760497 -0.721749,-0.1760497"
         id="path43"
         sodipodi:nodetypes="csc" />
    </g>
  </g>
</svg>
